# xmcd
#
# Track frame offsets:
# 225
# 14524
# 28386
# 44899
# 60323
# 79908
# 94641
# 107770
# 127222
# 149651
# 162300
# 175452
# 191286
# 215631
# 240055
# 258318
#
# Disc length: 3605 seconds
#
#
# Revision: 2
# Processed by: cddbd v1.5.2PL0 Copyright (c) Steve Scherf et al.
# Submitted via: FreeRIP 2.951 
#
DISCID=ea0e1210
DTITLE=Now That's Jazz [CD 3)
DYEAR=1900
DGENRE=Jazz
TTITLE0=Dukes of Dixieland - Here Are The Bob Cats
TTITLE1=Rod Mason - Bugle Boy March
TTITLE2=Mr. Acker Bilk - Da Da Strain
TTITLE3=Chris Barber - Down By The Riverside
TTITLE4=Humphrey Lyttleton - Black And Blue
TTITLE5=Happy Dixie Landers - Bavarian Dixie
TTITLE6=Kenny Ball and his Jazzmen - Midnight In Moscow
TTITLE7=Eddie Condon and his Dixieland Band - Singin' The Blues
TTITLE8=Kid Ory's Creole Jazz Band - Bourbon Street Parade
TTITLE9=King Oliver and his Jazzband - Sweet Lovin' Man
TTITLE10=Eddie Condon and his Dixieland Band
TTITLE11=Louis Armstrong - Mack The Knife
TTITLE12=Werner Böhm and die Hamburg Al Stars - On The Sunny Side Of The Street
TTITLE13=New Orleans Jazz Babies - Sweet Georgia Brown
TTITLE14=Fatty George and Band - I Can't Give You Anything But Love
TTITLE15=New Orleans Stompers - Bei mir biste scheen
EXTD=
EXTT0=
EXTT1=
EXTT2=
EXTT3=
EXTT4=
EXTT5=
EXTT6=
EXTT7=
EXTT8=
EXTT9=
EXTT10=
EXTT11=
EXTT12=
EXTT13=
EXTT14=
EXTT15=
PLAYORDER=
